<?xml version="1.0" encoding="UTF-8"?>
<svg id="Capa_1" data-name="Capa 1" xmlns="http://www.w3.org/2000/svg" viewBox="0 0 600.45 267.8">
  <defs>
    <style>
      .cls-1 {
        fill: none;
        stroke: #fff;
        stroke-width: 4px;
      }

      .cls-2 {
        fill: #fff;
        stroke-width: 0px;
      }
    </style>
  </defs>
  <path class="cls-1" d="m438.54,250.02c-9.3,0-16.4-1.7-25.4-6-10.2-4.8-21.2-15.5-26.1-25.6-.5-1.1-.9-2.1-1.2-2.9-6-1.1-25.9-1.1-43.6-1.1h-46.1c-54,0-81.3.1-89.1.6-.4.6-.9,1.4-1.4,2.3-10.2,20.4-29.8,32.6-52.4,32.6-16.3,0-28.9-5.3-40.9-17.2-5.2-5.2-8.6-9.7-10.8-14.4l-.5-1c-.4-.8-.8-1.7-1.2-2.3-2-.3-6.7-.4-12.1-.6l-20.7-.4c-3.1-.1-6-1.8-7.6-4.5,0,0-1.8-3-1.8-3.1-1.5-2.7-3.2-8-4.1-11.5-1.6-6.8-1.8-11.6-1.8-51.8s0-45.1,2.1-51.4c2.8-9.1,8.1-16.1,14.5-19.3,1.2-.6,2.4-1.1,3.8-1.4,3.6-.9,8.3-1.2,22.3-1.5l15.2-.3,1.6-1.8c5.5-6.3,16.1-15.3,25.1-21.2,25.2-16.2,60.9-25.9,103.4-27.9,10.1-.5,15.2-.7,19.9-.7s8.6.2,16.7.6c26.7,1.5,46.4,5.2,63.7,12,17.7,7,31.2,15.9,57.9,38,11,9.1,19,15.4,20.5,16.5,2,1,12.9,2.5,17.5,3.2,32.6,4.6,55.1,9.9,75.3,17.6,2.2.8,4.4,1.7,6.6,2.6,14.2,5.8,21.6,10.5,27.8,22.8,2.6,5.2,3.2,9,4,18.3,1.9,23.4-.1,40.9-15.9,50.1-1.8,1.1-4.6,2.4-8.1,3.8-7.4,3-17.1,6.3-24.3,8.1-3.3.8-6.2,1.6-7.9,2.1-.4.6-1,1.6-1.6,3-10.2,21-29.9,33.5-52.6,33.6-.1.1-.4.1-.7.1Z"/>
  <g>
    <path class="cls-2" d="m119.54,71.72c15.1-20.3,19.1,8.8,20.4,19.7,1.5,13.9-2.3,33.5-12.1,45.4,13.9,11.9,15.8,44.3,16.5,60.6.5,13.8-13.9,48.1-29.7,24.4-12.2-19.7-21.4-16.2-44.7-16.8-1.4,0-3.2-1.2-3.9-2.4-9.8-18.6-5-46.8-5-66.5,0-17.2-5-43.1,11.1-55.4.9-.5,2.9-1.1,3.5-1.2,13.2-1.2,34.2,3.9,43.9-7.8Zm-14.3,42.8c3-.4,5.1-5.2,5.1-10.2s-1.9-6.3-5-4.9c-2.6,1.2-4.7,0-8.4-.4.1,3.5.3,5.6.5,14,3.5.6,5.3,1.8,7.8,1.5Zm1.5,75c2.6,2,5.2.8,5.3-6.3.1-7.1-2.4-14.9-5.2-16-3.1-1.1-4.5-2.4-8.3-3.3.3,11.7.4,15.2.8,20.6,3.5,1.2,4.5,2.7,7.4,5Z"/>
    <path class="cls-2" d="m175.74,39.42c1.2-.4,1.3.5,1,2-6.4,27.2,3,61.3,4.1,88.9,1.3,32.5.5,65.7,4.6,98,.3,1.8-.2,4.2-1.4,5-7.8,5.3-19.6,8.3-29,7.6-1.3,0-2.9-1.9-3.3-3.7-4.6-31.8-2.5-65-3.1-97-.5-26.3-8.4-62.6,1.7-87.7.6-1.4,2.4-3,3.2-3.5,8-4.4,12.5-6.3,22.2-9.6Z"/>
    <path class="cls-2" d="m233.24,170.42c1.2,0,8.8.8,8.4,2.5,0,11.9,0,17.5-3.8,29.1-.4,1.6-9.8,4.2-10.7,4.2-7.1,0-22.2-1.3-26.3,3.9-3.7,4.7-3,3.8-6,7.9-1,.9-2.9.2-3.2-1.6-4-32.1-.3-55.3-1.6-87.5-1.1-27.5-10.4-61.3-4.2-88.3.4-1.5,2.1-3,3.2-3.3,10.1-3,15.5-4.2,27-6.1,1.3-.2,1.7.7,1.3,2-4,16.8-.5,33.8-.2,50.8.5,28.8.1,57.6-1.8,86.3,5-1.2,5.6.5,17.9.1Z"/>
    <path class="cls-2" d="m344.64,50.62c.9.8,1.7,2.3,2,3.5,16.7,46.8,19,97.1,16.6,148.9-.2,1.8-.9,3.2-1.4,3.1-4.6-.6-8-.7-19.5-.7-1.5,0-3.6-1.6-4.1-3.5-7.9-33.3-20-62.4-26.2-96.7-1.2,20.7-9.6,75-20.6,96.6-.8,2-4.7,3.6-7.4,3.6-12.2,0-24.3,0-36.5.1-1.2,0-2.2-1.6-2.2-3.7.7-30,2.2-59.5,1.7-89.7-.6-26.9-6.6-53.7-6.3-80.2,0-1.4,1.2-2.8,2.4-3,9.3-1.4,18.7-2,28-2.3.9,0,1.2,1.3,1.1,2.9-1.3,22.7,2.2,90.6,3.7,113.2,9.8-22.8,8.3-89.5,12-112.2.4-1.7,2.2-2.7,3.7-2.5,7.3.9,10.6,1.5,16.7,3.1,1.3.3,2.7,1.8,3.5,3.6,10.4,23.5,19.4,57.2,26.4,83.5-2.5-24-6.1-56.6-13.1-78.6-.4-1.4.2-2.2,1.2-1.7,6.4,3.1,12.8,7.6,18.3,12.7Z"/>
    <path class="cls-2" d="m455.94,235.72c-.2.8-2,2.2-3.6,2.6-13.5,2.9-24.6,1.8-37.2-3.4-1.9-.8-4-3.4-3.7-5.1,3.1-8.3,1-10.2,1.4-18.5-9.2-6.6-16.1-12.8-23.7-20.4-1.9,6.5-2.1,6.8-5,14.2-.6,1.4-2.9,1.5-9.1.6-.6-.1-.8-1.6-.5-2.8-1.8-54.3,2.2-96.7-20.4-145.1-.1-.6,1.1-.6,2.6.4,13.1,8.3,25.5,17.2,38.3,25.8,1.7,1.1,3.9,3.2,4.9,4.4,21.1,24.2,34.7,44.8,42,74.2,5.4,21.8,20.3,50.9,14,73.1Zm-58.7-123.9c-.6,16.8-2.1,33.6-3.3,50.3,4.1,2.9,8.7,8,16.8,13.6-3-21.1-4.6-43.8-13.5-63.9Z"/>
    <path class="cls-2" d="m506.64,113.42c1.1.4,3,1.1,3.7,1.4,16.6,4.4,5.5,30.8-1.1,46.5-2.1,5.1-3.7,10.3-4.6,15.7-2,11.8-5.1,21.9-16,29.5-1.1.7-3,2.6-3.9,4.3-5.4,9.2-10.4,17.6-19.9,23.1-1.1.7-1.2.1-.4-1,9.7-15.3,11-30.5,11.6-48.3-7.6-19.9-14.8-36.8-28.7-53.1-10.8-12.7-22.4-24.3-32.8-37.4-1.1-1.5-1.2-2.1-.9-1.9,9.4,4.4,22.7,4.9,32.5,6.4,1.8.3,4.1,1.4,5.9,2.7,11.7,8.3,24.1,24.5,33.9,35.1,4.6-11.7-3.9-24.7-7.6-30.5-.5-.7,0-1,1.5-.7,8.8,2.2,18,4.9,26.8,8.2Z"/>
  </g>
</svg>